<svg xmlns="http://www.w3.org/2000/svg" version="1.1" xmlns:xlink="http://www.w3.org/1999/xlink" xmlns:svgjs="http://svgjs.dev/svgjs" viewBox="0 0 9.152338508508782 1.7386722468541784"><g transform="matrix(1,0,0,1,0.30919840375450747,0.4436511234270892)"><rect width="9.152338508508782" height="9.152338508508782" x="-0.30919840375450747" y="-4.150484254254391" fill="#000000"></rect><g><path d=" M 0.18350475 0.8300857500000001 Q 0.11505 0.800748 0.07535775 0.74955075 Q 0.0356655 0.6983535000000001 0.0310635 0.6339255 L 0.2496585 0.6339255 Q 0.2542605 0.664989 0.27842100000000003 0.6822465000000001 Q 0.3025815 0.6995040000000001 0.338247 0.6995040000000001 Q 0.365859 0.6995040000000001 0.381966 0.687999 Q 0.398073 0.676494 0.398073 0.6580860000000001 Q 0.398073 0.6339255 0.37161150000000004 0.6224205 Q 0.34515 0.6109155000000001 0.2841735 0.5971095000000001 Q 0.21514350000000002 0.5833035000000001 0.1691235 0.566046 Q 0.1231035 0.5487885000000001 0.08916375 0.5096715 Q 0.055224 0.47055450000000004 0.055224 0.40382550000000006 Q 0.055224 0.3463005 0.0862875 0.29970525000000003 Q 0.11735100000000001 0.25311000000000006 0.17775225 0.2254980000000001 Q 0.23815350000000002 0.197886 0.32329050000000004 0.197886 Q 0.4498455 0.197886 0.522327 0.26001300000000005 Q 0.5948085000000001 0.3221400000000001 0.6063135000000001 0.42338400000000004 L 0.402675 0.42338400000000004 Q 0.3969225 0.39232050000000007 0.37563825 0.37563825000000006 Q 0.354354 0.35895600000000005 0.3186885 0.35895600000000005 Q 0.2910765 0.35895600000000005 0.27669525 0.36931050000000004 Q 0.262314 0.37966500000000003 0.262314 0.39807300000000007 Q 0.262314 0.42108300000000004 0.2887755 0.43316325000000006 Q 0.315237 0.44524350000000007 0.37391250000000004 0.45789900000000006 Q 0.444093 0.47285550000000004 0.49068825 0.4912635000000001 Q 0.5372835 0.5096715 0.57237375 0.55051425 Q 0.607464 0.5913570000000001 0.607464 0.6615375000000001 Q 0.607464 0.7179120000000001 0.57467475 0.7627815000000001 Q 0.5418855 0.8076510000000001 0.48148425 0.8335372500000001 Q 0.42108300000000004 0.8594235000000001 0.3393975 0.8594235000000001 Q 0.2519595 0.8594235000000001 0.18350475 0.8300857500000001 M 1.1181630852539062 0.6592365 L 1.1181630852539062 0.8513700000000001 L 1.0203705852539062 0.8513700000000001 Q 0.7730130852539063 0.8513700000000001 0.7730130852539063 0.6063135000000001 L 0.7730130852539063 0.39347100000000007 L 0.6936285852539062 0.39347100000000007 L 0.6936285852539062 0.20593950000000005 L 0.7730130852539063 0.20593950000000005 L 0.7730130852539063 0.0494715 L 0.9996615852539064 0.0494715 L 0.9996615852539064 0.20593950000000005 L 1.1170125852539063 0.20593950000000005 L 1.1170125852539063 0.39347100000000007 L 0.9996615852539064 0.39347100000000007 L 0.9996615852539064 0.6097650000000001 Q 0.9996615852539064 0.6362265 1.0117418352539063 0.6477315000000001 Q 1.0238220852539062 0.6592365 1.0525845852539062 0.6592365 L 1.1181630852539062 0.6592365 M 1.8543916294921876 0.5740995 L 1.4275561294921877 0.5740995 Q 1.4310076294921876 0.6270225 1.4568938794921875 0.65290875 Q 1.4827801294921876 0.678795 1.5230476294921877 0.678795 Q 1.5794221294921877 0.678795 1.6035826294921876 0.6281730000000001 L 1.8440371294921878 0.6281730000000001 Q 1.8290806294921875 0.6949020000000001 1.7859368794921875 0.74724975 Q 1.7427931294921877 0.7995975000000001 1.6772146294921877 0.8295105 Q 1.6116361294921877 0.8594235000000001 1.5322516294921877 0.8594235000000001 Q 1.4367601294921877 0.8594235000000001 1.3625528794921877 0.8191560000000001 Q 1.2883456294921876 0.7788885000000001 1.2463523794921876 0.7041060000000001 Q 1.2043591294921876 0.6293235 1.2043591294921876 0.5280795 Q 1.2043591294921876 0.42683550000000003 1.2457771294921876 0.35262825000000003 Q 1.2871951294921877 0.27842100000000003 1.3614023794921877 0.23815350000000002 Q 1.4356096294921876 0.197886 1.5322516294921877 0.197886 Q 1.6277431294921876 0.197886 1.7013751294921877 0.23700300000000007 Q 1.7750071294921876 0.27612000000000003 1.8164251294921878 0.34917675000000004 Q 1.8578431294921876 0.42223350000000004 1.8578431294921876 0.5211765 Q 1.8578431294921876 0.5476380000000001 1.8543916294921876 0.5740995 M 1.6277431294921876 0.46480200000000005 Q 1.6277431294921876 0.42338400000000004 1.6001311294921876 0.39979875000000004 Q 1.5725191294921876 0.37621350000000003 1.5311011294921877 0.37621350000000003 Q 1.4896831294921875 0.37621350000000003 1.4632216294921876 0.39864825000000004 Q 1.4367601294921877 0.42108300000000004 1.4287066294921877 0.46480200000000005 L 1.6277431294921876 0.46480200000000005 M 1.9687833502441408 0.35320350000000006 Q 2.0050241002441407 0.27842100000000003 2.0677263502441408 0.23815350000000002 Q 2.130428600244141 0.197886 2.207512100244141 0.197886 Q 2.274241100244141 0.197886 2.322562100244141 0.22434750000000003 Q 2.370883100244141 0.25080900000000006 2.397344600244141 0.29567850000000007 L 2.397344600244141 0.20593950000000005 L 2.622842600244141 0.20593950000000005 L 2.622842600244141 0.8513700000000001 L 2.397344600244141 0.8513700000000001 L 2.397344600244141 0.7616310000000001 Q 2.370883100244141 0.8065005000000001 2.3219868502441408 0.8329620000000001 Q 2.273090600244141 0.8594235000000001 2.207512100244141 0.8594235000000001 Q 2.130428600244141 0.8594235000000001 2.0677263502441408 0.8191560000000001 Q 2.0050241002441407 0.7788885000000001 1.9687833502441408 0.7035307500000001 Q 1.9325426002441408 0.6281730000000001 1.9325426002441408 0.5280795 Q 1.9325426002441408 0.42798600000000003 1.9687833502441408 0.35320350000000006 M 2.363404850244141 0.43028700000000003 Q 2.329465100244141 0.39462150000000007 2.2799936002441408 0.39462150000000007 Q 2.229371600244141 0.39462150000000007 2.196007100244141 0.42971175000000006 Q 2.162642600244141 0.46480200000000005 2.162642600244141 0.5280795 Q 2.162642600244141 0.5902065000000001 2.196007100244141 0.62644725 Q 2.229371600244141 0.662688 2.2799936002441408 0.662688 Q 2.329465100244141 0.662688 2.363404850244141 0.6270225 Q 2.397344600244141 0.5913570000000001 2.397344600244141 0.5280795 Q 2.397344600244141 0.46595250000000005 2.363404850244141 0.43028700000000003 M 3.174959123730469 0.8513700000000001 L 2.996631623730469 0.5867550000000001 L 2.996631623730469 0.8513700000000001 L 2.771133623730469 0.8513700000000001 L 2.771133623730469 0 L 2.996631623730469 0 L 2.996631623730469 0.45904950000000005 L 3.174959123730469 0.20593950000000005 L 3.445326623730469 0.20593950000000005 L 3.191066123730469 0.5303805 L 3.449928623730469 0.8513700000000001 L 3.174959123730469 0.8513700000000001 M 4.134904864746094 0.27439425000000006 Q 4.199908114746094 0.3486015 4.199908114746094 0.47515650000000004 L 4.199908114746094 0.8513700000000001 L 3.974410114746094 0.8513700000000001 L 3.974410114746094 0.5050695000000001 Q 3.974410114746094 0.44984550000000006 3.945647614746094 0.41820675000000007 Q 3.916885114746094 0.3865680000000001 3.868564114746094 0.3865680000000001 Q 3.817942114746094 0.3865680000000001 3.789179614746094 0.41820675000000007 Q 3.760417114746094 0.44984550000000006 3.760417114746094 0.5050695000000001 L 3.760417114746094 0.8513700000000001 L 3.534919114746094 0.8513700000000001 L 3.534919114746094 0 L 3.760417114746094 0 L 3.760417114746094 0.29797950000000006 Q 3.790330114746094 0.2542605 3.841527364746094 0.22722375000000006 Q 3.892724614746094 0.200187 3.959453614746094 0.200187 Q 4.069901614746094 0.200187 4.134904864746094 0.27439425000000006 M 4.470706041064453 0.8191560000000001 Q 4.394197791064453 0.7788885000000001 4.350478791064453 0.7041060000000001 Q 4.3067597910644535 0.6293235 4.3067597910644535 0.5280795 Q 4.3067597910644535 0.42798600000000003 4.351054041064453 0.35320350000000006 Q 4.395348291064453 0.27842100000000003 4.4718565410644535 0.23815350000000002 Q 4.548364791064453 0.197886 4.6450067910644535 0.197886 Q 4.741648791064453 0.197886 4.818157041064453 0.23815350000000002 Q 4.894665291064453 0.27842100000000003 4.938959541064453 0.35320350000000006 Q 4.983253791064453 0.42798600000000003 4.983253791064453 0.5280795 Q 4.983253791064453 0.6281730000000001 4.938959541064453 0.7035307500000001 Q 4.894665291064453 0.7788885000000001 4.817581791064453 0.8191560000000001 Q 4.740498291064453 0.8594235000000001 4.643856291064453 0.8594235000000001 Q 4.547214291064453 0.8594235000000001 4.470706041064453 0.8191560000000001 M 4.722665541064453 0.6287482500000001 Q 4.754304291064453 0.593658 4.754304291064453 0.5280795 Q 4.754304291064453 0.46250100000000005 4.722665541064453 0.42798600000000003 Q 4.691026791064453 0.39347100000000007 4.6450067910644535 0.39347100000000007 Q 4.598986791064453 0.39347100000000007 4.567923291064453 0.42798600000000003 Q 4.536859791064453 0.46250100000000005 4.536859791064453 0.5280795 Q 4.536859791064453 0.5948085000000001 4.566772791064453 0.6293235 Q 4.596685791064453 0.6638385 4.643856291064453 0.6638385 Q 4.691026791064453 0.6638385 4.722665541064453 0.6287482500000001 M 5.320219511572266 0 L 5.320219511572266 0.8513700000000001 L 5.094721511572266 0.8513700000000001 L 5.094721511572266 0 L 5.320219511572266 0 M 5.46792461147461 0.35320350000000006 Q 5.50416536147461 0.27842100000000003 5.56744286147461 0.23815350000000002 Q 5.6307203614746095 0.197886 5.70780386147461 0.197886 Q 5.76993086147461 0.197886 5.81882711147461 0.22377225 Q 5.86772336147461 0.2496585 5.89533536147461 0.294528 L 5.89533536147461 0 L 6.12198386147461 0 L 6.12198386147461 0.8513700000000001 L 5.89533536147461 0.8513700000000001 L 5.89533536147461 0.7616310000000001 Q 5.86887386147461 0.8065005000000001 5.82055286147461 0.8329620000000001 Q 5.77223186147461 0.8594235000000001 5.7066533614746096 0.8594235000000001 Q 5.62956986147461 0.8594235000000001 5.56686761147461 0.8191560000000001 Q 5.50416536147461 0.7788885000000001 5.46792461147461 0.7035307500000001 Q 5.43168386147461 0.6281730000000001 5.43168386147461 0.5280795 Q 5.43168386147461 0.42798600000000003 5.46792461147461 0.35320350000000006 M 5.86254611147461 0.43028700000000003 Q 5.82860636147461 0.39462150000000007 5.77913486147461 0.39462150000000007 Q 5.72851286147461 0.39462150000000007 5.69514836147461 0.42971175000000006 Q 5.66178386147461 0.46480200000000005 5.66178386147461 0.5280795 Q 5.66178386147461 0.5902065000000001 5.69514836147461 0.62644725 Q 5.72851286147461 0.662688 5.77913486147461 0.662688 Q 5.82860636147461 0.662688 5.86254611147461 0.6270225 Q 5.89648586147461 0.5913570000000001 5.89648586147461 0.5280795 Q 5.89648586147461 0.46595250000000005 5.86254611147461 0.43028700000000003 M 6.883491384960939 0.5740995 L 6.456655884960939 0.5740995 Q 6.4601073849609385 0.6270225 6.485993634960939 0.65290875 Q 6.511879884960939 0.678795 6.552147384960938 0.678795 Q 6.608521884960939 0.678795 6.632682384960939 0.6281730000000001 L 6.873136884960939 0.6281730000000001 Q 6.858180384960939 0.6949020000000001 6.815036634960938 0.74724975 Q 6.7718928849609386 0.7995975000000001 6.706314384960939 0.8295105 Q 6.640735884960939 0.8594235000000001 6.561351384960939 0.8594235000000001 Q 6.465859884960938 0.8594235000000001 6.391652634960939 0.8191560000000001 Q 6.317445384960939 0.7788885000000001 6.275452134960939 0.7041060000000001 Q 6.233458884960939 0.6293235 6.233458884960939 0.5280795 Q 6.233458884960939 0.42683550000000003 6.274876884960938 0.35262825000000003 Q 6.316294884960938 0.27842100000000003 6.390502134960938 0.23815350000000002 Q 6.464709384960939 0.197886 6.561351384960939 0.197886 Q 6.6568428849609385 0.197886 6.730474884960938 0.23700300000000007 Q 6.804106884960938 0.27612000000000003 6.8455248849609385 0.34917675000000004 Q 6.886942884960939 0.42223350000000004 6.886942884960939 0.5211765 Q 6.886942884960939 0.5476380000000001 6.883491384960939 0.5740995 M 6.6568428849609385 0.46480200000000005 Q 6.6568428849609385 0.42338400000000004 6.629230884960939 0.39979875000000004 Q 6.6016188849609385 0.37621350000000003 6.560200884960938 0.37621350000000003 Q 6.518782884960938 0.37621350000000003 6.492321384960938 0.39864825000000004 Q 6.465859884960938 0.42108300000000004 6.457806384960938 0.46480200000000005 L 6.6568428849609385 0.46480200000000005 M 7.315996355712892 0.23240100000000008 Q 7.370069855712892 0.200187 7.432196855712892 0.200187 L 7.432196855712892 0.4406415000000001 L 7.368919355712892 0.4406415000000001 Q 7.295287355712892 0.4406415000000001 7.259621855712892 0.46940400000000004 Q 7.223956355712892 0.49816650000000007 7.223956355712892 0.5694975 L 7.223956355712892 0.8513700000000001 L 6.998458355712892 0.8513700000000001 L 6.998458355712892 0.20593950000000005 L 7.223956355712892 0.20593950000000005 L 7.223956355712892 0.3198390000000001 Q 7.261922855712892 0.26461500000000004 7.315996355712892 0.23240100000000008" fill="#fffdfa" fill-rule="nonzero"></path></g><g></g><g clip-path="url(#SvgjsClipPath1002)"><g clip-path="url(#SvgjsClipPath100030425ee3-2128-42b6-b8dc-8dd7c47e0ef1)"><path d=" M 7.982842709447232 0.31009135677440497 C 8.00175982895531 0.28602100975890615 8.018388454458492 0.25495346884355247 7.984489108011903 0.23414299098610264 C 8.011720540271572 0.24523971731198896 8.023722785808028 0.2615061351309446 8.022356274999352 0.2823166129883944 C 8.02004281742088 0.29394754760287867 8.019234942298093 0.30582773862085033 8.019952533094932 0.317664790171895 C 8.023525217980268 0.33310800870851354 8.039231860287236 0.33429341567507737 8.053786023598933 0.32183017854051293 C 8.060358506701368 0.3160354322735851 8.065883416744601 0.309151572582622 8.070118297360475 0.30148069228117175 C 8.093036165380704 0.2479398109580505 8.055136070421964 0.23932914646481845 8.129981349171937 0.20105037983620205 C 8.165115494542029 0.18312109946692806 8.20341072515629 0.16713456940396676 8.19012428873939 0.11958657885625018 C 8.203075633967906 0.1335577853383414 8.205941197382035 0.15412280350992869 8.197302586481358 0.17110238994482574 C 8.19152372751936 0.18188630054342475 8.1732816314228 0.19556787261584602 8.180295289308301 0.20610482342974423 C 8.187218436240752 0.21251478000669027 8.197658427501864 0.21327367917498274 8.205435795390837 0.2079323258365286 C 8.217040457902636 0.20186560718942959 8.227573952111344 0.19394045975151536 8.236618584205717 0.18447114628995792 C 8.251436171287763 0.17026272667684272 8.26648425416886 0.16482961141342672 8.274485751193165 0.14614298770440387 C 8.282174432490182 0.12803260349301498 8.273185096327074 0.11950425892801658 8.288364891093346 0.10004382789359784 C 8.295707828691782 0.0906593560749693 8.302474526792583 0.08107731642858065 8.283425695399332 0.06835065552366892 C 8.301799503381067 0.07668143226090662 8.305009980582177 0.08606590407953571 8.302869662448103 0.0993688044820826 C 8.301569007582012 0.10740322947768005 8.293666294471588 0.12406478295215662 8.310838231501114 0.12501969411966618 C 8.336373873239172 0.12632034898575717 8.343206427282558 0.08369509014640858 8.338316623545484 0.06919031879165075 C 8.329689495066605 0.04355589313971367 8.327170505262657 0.03324943812486972 8.342844219598332 0.007516228559051957 C 8.359077709445993 -0.019155428188628296 8.382654136892091 -0.0415135206968693 8.365745623632913 -0.08767853645026186 C 8.389799506662767 -0.050190041132688434 8.374965455595074 -0.024456831566871257 8.364938888336225 0.002741672721504107 C 8.357064224473248 0.017952348984962507 8.356364340696102 0.03587782055307981 8.363029066001205 0.05165617407789824 C 8.370240291714467 0.06490968252350507 8.38380661588736 0.06797198385379394 8.392664240165296 0.05955888718832206 C 8.40162410449741 0.04778842342028547 8.403513811645633 0.03209125604237345 8.39760343585931 0.01853063495670587 C 8.392104464653306 -0.002115203044277314 8.38546947843768 -0.021822593863396855 8.413606429907919 -0.04297881541942691 C 8.390902593701096 -0.015665063231524973 8.412124671199713 0.015929325224523838 8.423089685640427 0.04841276890549512 C 8.435285970057068 0.0742004606471596 8.428173105724206 0.10498880731401816 8.405901284625255 0.12281352004300622 C 8.391725792983433 0.13679144385706832 8.356970319283214 0.1610922866716214 8.364741320508465 0.17879107124184113 C 8.367540198068404 0.1852614176010003 8.376052078647758 0.1875993035628345 8.387428692729639 0.18313756345257454 C 8.402476775610737 0.17722699260540342 8.408403810443556 0.16198134189654328 8.427650209664566 0.16186609399701735 C 8.39875591485458 0.1821661882994185 8.398311387242117 0.20128087563525637 8.392828880021762 0.22103765841131595 C 8.385502406408973 0.2473800354460624 8.380958346370479 0.24397199041719092 8.358007550378957 0.26180248687258545 C 8.350055445311593 0.26799294547575025 8.340572189579085 0.28136170182088427 8.352245155402606 0.286942992955121 C 8.364346184852943 0.29273831590276433 8.374817279724255 0.2788262480312899 8.386078645906608 0.2774597372226118 C 8.379679571652424 0.2828799083880314 8.374443254277095 0.28953871198083153 8.370684819326929 0.29703541615655765 C 8.367258748759063 0.3032231679541662 8.365314451611695 0.3101211960943958 8.365004744278812 0.31718733458813875 C 8.364575930388865 0.3223094731071828 8.366754203799053 0.3273034124311072 8.370800067226455 0.3304737710050385 C 8.37418553861713 0.3327584632564067 8.3786470860364 0.33264609835844067 8.38191325753799 0.33019388324904536 C 8.386045717935314 0.3272797577895754 8.387609796571754 0.3216326107127522 8.389865362605352 0.3177635740857739 C 8.39641802462986 0.3066565283626814 8.406796777856803 0.29832074460906327 8.41905600915698 0.2943188585248503 C 8.402172926607571 0.3096753048732056 8.39789762645305 0.3345466938673651 8.40868369819955 0.35465936592006564 L 7.959908377441356 0.35465936592006564 C 7.964232863507043 0.33831681923328166 7.972058325863263 0.32310969317564575 7.982842709447232 0.31009135677440497 Z" fill="#ba8437" transform="matrix(1,0,0,1,0,0)" fill-rule="evenodd"></path></g><g clip-path="url(#SvgjsClipPath100030425ee3-2128-42b6-b8dc-8dd7c47e0ef1)"><path d=" M 7.7875963036628235 0.37112335156678206 L 8.444657506837626 0.37112335156678206 C 8.39459052648596 0.7259387062391647 7.837679748000134 0.7259387062391647 7.7875963036628235 0.37112335156678206 Z" fill="#ba8437" transform="matrix(1,0,0,1,0,0)" fill-rule="evenodd"></path></g><g clip-path="url(#SvgjsClipPath100030425ee3-2128-42b6-b8dc-8dd7c47e0ef1)"><path d=" M 8.242627938966768 0.5612165298437686 L 8.356410543771226 0.985822719672582 L 8.305503900151578 0.985822719672582 L 8.195145804361639 0.5739102627773869 L 8.242627938966768 0.5612165298437686 Z" fill="#ba8437" transform="matrix(1,0,0,1,0,0)" fill-rule="evenodd"></path></g><g clip-path="url(#SvgjsClipPath100030425ee3-2128-42b6-b8dc-8dd7c47e0ef1)"><path d=" M 8.037124470124455 0.5739102627773869 L 7.95111660910601 0.8949579828883545 L 7.900209965486363 0.8949579828883545 L 7.989625871533679 0.5612165298437686 L 8.037124470124455 0.5739102627773869 Z" fill="#ba8437" transform="matrix(1,0,0,1,0,0)" fill-rule="evenodd"></path></g><g clip-path="url(#SvgjsClipPath100030425ee3-2128-42b6-b8dc-8dd7c47e0ef1)"><path d=" M 7.917530078386709 0.9858391836582283 C 7.894409820007164 0.9858391836582283 7.87356613115375 0.9719118760309409 7.864718391319898 0.9505515425277062 C 7.855870651486046 0.9291912090244716 7.860761271552311 0.9046044016243542 7.877109763035273 0.8882559101413925 C 7.893458254518235 0.8719074186584317 7.918045061918352 0.8670167985921668 7.939405395421586 0.8758645384260193 C 7.960765728924821 0.8847122782598711 7.974693036552108 0.9055559671132845 7.974693036552108 0.9286762254928296 C 7.974683948753948 0.9602426904872117 7.94909654338114 0.9858300958600414 7.917530078386734 0.9858391836582283 Z M 7.917530078386709 0.9529112123647956 C 7.927355186065437 0.9529178711998094 7.936216244328082 0.9470036141560472 7.939979226886435 0.9379276708164157 C 7.943742209444789 0.9288517274767829 7.941665587603027 0.9184025920273786 7.934718185741946 0.9114551901662988 C 7.927770783880866 0.9045077883052179 7.917321648431462 0.9024311664634554 7.908245705091829 0.9061941490218088 C 7.899169761752196 0.9099571315801624 7.893255504708435 0.9188181898428076 7.893262163543449 0.928643297521536 C 7.893253422755943 0.9350852519810153 7.895806354350333 0.941266353731721 7.900358418939791 0.9458245947995909 C 7.904910483529249 0.9503828358674604 7.911088117997245 0.9529441462660695 7.917530078386706 0.9529441403360892 Z" fill="#ba8437" transform="matrix(1,0,0,1,0,0)" fill-rule="evenodd"></path></g><g clip-path="url(#SvgjsClipPath100030425ee3-2128-42b6-b8dc-8dd7c47e0ef1)"><path d=" M 7.969951408685853 0.7492846378862088 L 8.262285937828947 0.7492846378862088 L 8.262285937828947 0.7789527400215916 L 7.969951408685853 0.7789527400215916 Z" fill="#ba8437" transform="matrix(1,0,0,1,0,0)" fill-rule="nonzero"></path></g><g clip-path="url(#SvgjsClipPath100030425ee3-2128-42b6-b8dc-8dd7c47e0ef1)"><path d=" M 8.432902221085868 0.3960498258359107 L 8.512143384003515 0.3960498258359107 L 8.512143384003515 0.41796339073169014 L 8.432902221085868 0.41796339073169014 Z" fill="#ba8437" transform="matrix(1,0,0,1,0,0)" fill-rule="nonzero"></path></g><g clip-path="url(#SvgjsClipPath100030425ee3-2128-42b6-b8dc-8dd7c47e0ef1)"><path d=" M 8.53392523701412 0.40701484027662377 C 8.53392523701412 0.4190446266102155 8.524173170337106 0.4287966932872293 8.512143384003515 0.4287966932872293 C 8.500113597669923 0.4287966932872293 8.490361530992908 0.4190446266102155 8.490361530992908 0.40701484027662377 C 8.490361530992908 0.394985053943032 8.500113597669923 0.385232987266018 8.512143384003515 0.385232987266018 C 8.524173170337106 0.385232987266018 8.53392523701412 0.394985053943032 8.53392523701412 0.40701484027662377 Z" fill="#ba8437" transform="matrix(1,0,0,1,0,0)" fill-rule="nonzero"></path></g><g clip-path="url(#SvgjsClipPath100030425ee3-2128-42b6-b8dc-8dd7c47e0ef1)"><path d=" M 7.720110426496934 0.3960498258359107 L 7.799368053400226 0.3960498258359107 L 7.799368053400226 0.41796339073169014 L 7.720110426496934 0.41796339073169014 Z" fill="#ba8437" transform="matrix(1,0,0,1,0,0)" fill-rule="nonzero"></path></g><g clip-path="url(#SvgjsClipPath100030425ee3-2128-42b6-b8dc-8dd7c47e0ef1)"><path d=" M 7.720110426496934 0.42881315727287533 C 7.728930015662001 0.42881981608218805 7.7368845653478475 0.4235112687116866 7.740262752692088 0.41536430316324296 C 7.743640940036328 0.4072173376147981 7.741777015119616 0.39783750180630356 7.7355406220362575 0.3916011087229457 C 7.729304228952899 0.3853647156395879 7.719924393144405 0.38350079072287463 7.711777427595961 0.3868789780671155 C 7.703630462047516 0.3902571654113552 7.698321914677015 0.3982117150972024 7.698328573486328 0.40703130426227013 C 7.698328573486328 0.41906108950308324 7.70808064125612 0.42881315727287533 7.720110426496933 0.42881315727287533 Z" fill="#ba8437" transform="matrix(1,0,0,1,0,0)" fill-rule="evenodd"></path></g><g clip-path="url(#SvgjsClipPath100030425ee3-2128-42b6-b8dc-8dd7c47e0ef1)"><path d=" M 7.787826799461877 0.35177816843189047 L 8.310492487802533 -0.04640332443394371 C 8.055646453977012 -0.29830230482870296 7.612633528195169 0.03919293694333498 7.787826799461877 0.35177816843189047 Z" fill="#ba8437" transform="matrix(1,0,0,1,0,0)" fill-rule="evenodd"></path></g><g clip-path="url(#SvgjsClipPath100030425ee3-2128-42b6-b8dc-8dd7c47e0ef1)"><path d=" M 8.156570685991383 0.041530822905168574 L 8.27405768756635 -0.047967403070380804 C 8.227432966254305 -0.08730028209530588 8.168755389992414 -0.1094989968375526 8.107771432534514 -0.11087629222648468 C 8.159177770809196 -0.10266610580897742 8.207216740682332 -0.08009344026920652 8.246348799722925 -0.04576122899372084 Z" fill="#cf9645" transform="matrix(1,0,0,1,0,0)" fill-rule="evenodd"></path></g><g clip-path="url(#SvgjsClipPath100030425ee3-2128-42b6-b8dc-8dd7c47e0ef1)"><path d=" M 7.788205471131752 0.33681240547902525 L 8.102667596984034 0.093853369290433 L 8.24633233573728 -0.04576122899372144 C 8.003801363175501 -0.2521537530609569 7.6548801153646435 0.04992745558499337 7.788205471131752 0.33681240547902525 Z" fill="#ba8437" transform="matrix(1,0,0,1,0,0)" fill-rule="evenodd"></path></g><g clip-path="url(#SvgjsClipPath100030425ee3-2128-42b6-b8dc-8dd7c47e0ef1)"><path d=" M 7.795992936342649 0.31623242342062974 L 7.8175442935542 0.29976843777391393 C 7.780614947169258 0.21926362703419605 7.781629579742077 0.12646098349883117 7.820310243142849 0.046782834326471484 C 7.765538461900441 0.12612929322440686 7.756312174544295 0.22836180430815067 7.795992936342649 0.31623242342062974 Z" fill="#cf9645" transform="matrix(1,0,0,1,0,0)" fill-rule="evenodd"></path></g><g clip-path="url(#SvgjsClipPath100030425ee3-2128-42b6-b8dc-8dd7c47e0ef1)"><path d=" M 7.832954584119527 -0.08646020151240383 L 7.8760079065856905 -0.11927292490630947 C 7.898915078936937 -0.136647577948716 7.93155861460485 -0.13223131607707 7.949025682928877 -0.10939453351827999 L 7.967580594752727 -0.08502783476113977 L 7.944860294560258 -0.06772418584644155 C 7.938691787937955 -0.07585739475591907 7.9325068173300055 -0.08397962767496601 7.926305382736409 -0.09209088460358117 C 7.918401352818585 -0.10234116222092998 7.903724177419776 -0.10432991948746898 7.893377411442976 -0.09655262471384173 C 7.883188169605596 -0.08102890686579514 7.867996514809309 -0.06945652585080339 7.850324088976813 -0.06375636530558197 C 7.840015013830106 -0.055886432588592924 7.838019302966597 -0.04115793913096023 7.845862348866553 -0.030828394012149166 L 7.864417260690402 -0.006478159240656034 L 7.841696960497934 0.010825489674042205 L 7.823142048674084 -0.013524745097450941 C 7.80581451047095 -0.03644429103368607 7.810225790876583 -0.06905100536532582 7.833020440062114 -0.08654252144063683 Z" fill="#ba8437" transform="matrix(1,0,0,1,0,0)" fill-rule="evenodd"></path></g><g clip-path="url(#SvgjsClipPath100030425ee3-2128-42b6-b8dc-8dd7c47e0ef1)"><path d=" M 7.815634471219181 0.3944528192281785 C 7.831587484067395 0.46585287996481933 7.875982465306914 0.5276526442324756 7.938554588057565 0.5655630220545016 C 7.889217450897356 0.5203127740173983 7.855908785236829 0.46026473200354473 7.843639710804246 0.3944528192281785 Z" fill="#cf9645" transform="matrix(1,0,0,1,0,0)" fill-rule="evenodd"></path></g><g clip-path="url(#SvgjsClipPath100030425ee3-2128-42b6-b8dc-8dd7c47e0ef1)"><path d=" M 8.34490221780417 0.52511100932052 C 8.380690898288194 0.4892227248329734 8.40556000420735 0.44391482203810856 8.416619339281267 0.3944528192281797 L 8.402624951481558 0.3944528192281797 C 8.39344473399097 0.4417891255764376 8.373715099129342 0.4864481051149105 8.34490221780417 0.5251110093205207 Z" fill="#cf9645" transform="matrix(1,0,0,1,0,0)" fill-rule="evenodd"></path></g><g clip-path="url(#SvgjsClipPath100030425ee3-2128-42b6-b8dc-8dd7c47e0ef1)"><path d=" M 7.988111184854182 0.6503525481350907 L 7.933319040621909 0.8548352498673071 L 7.923671145032934 0.8548352498673071 L 7.978463289265205 0.6503525481350907 L 7.988111184854182 0.6503525481350907 Z" fill="#cf9645" transform="matrix(1,0,0,1,0,0)" fill-rule="evenodd"></path></g><g clip-path="url(#SvgjsClipPath100030425ee3-2128-42b6-b8dc-8dd7c47e0ef1)"><path d=" M 8.229868350090564 0.6503525481350907 L 8.306870410960256 0.9377478815841702 L 8.316534770534878 0.9377478815841702 L 8.239516245679539 0.6503525481350907 L 8.229868350090564 0.6503525481350907 Z" fill="#cf9645" transform="matrix(1,0,0,1,0,0)" fill-rule="evenodd"></path></g><g clip-path="url(#SvgjsClipPath100030425ee3-2128-42b6-b8dc-8dd7c47e0ef1)"><path d=" M 8.352706147000713 0.4853834119549932 C 8.370878537182538 0.45778031069312536 8.383479312904619 0.4268907925781414 8.389799506662765 0.3944528192281785 L 8.376233182489871 0.3944528192281785 C 8.372540420985274 0.42568775886658744 8.364625856087033 0.45627708142291773 8.352706147000713 0.4853834119549932 Z" fill="#cf9645" transform="matrix(1,0,0,1,0,0)" fill-rule="evenodd"></path></g></g></g><defs><clipPath id="SvgjsClipPath1002"><path d=" M 7.698328573486328 -0.13445271967258193 h 0.8356131275134391 v 1.120275439345164 h -0.8356131275134391 Z"></path></clipPath><clipPath id="SvgjsClipPath100030425ee3-2128-42b6-b8dc-8dd7c47e0ef1"><path d=" M 7.698328573486328 -0.13445271967258193 L 8.533941700999767 -0.13445271967258193 L 8.533941700999767 0.985822719672582 L 7.698328573486328 0.985822719672582 Z"></path></clipPath></defs></svg>